<?xml version="1.0" encoding="utf-8"?>
<!-- Generator: Adobe Illustrator 23.0.3, SVG Export Plug-In . SVG Version: 6.00 Build 0)  -->
<svg version="1.1" id="Layer_1" xmlns="http://www.w3.org/2000/svg" xmlns:xlink="http://www.w3.org/1999/xlink" x="0px" y="0px"
	 viewBox="0 0 299.66 151.1" style="enable-background:new 0 0 299.66 151.1;" xml:space="preserve">
<style type="text/css">
	.st0{fill:#2A7DBB;}
	.st1{fill:#FAB84F;}
	.st2{fill:#FFFFFF;}
	.st3{font-family:'TimesNewRomanPSMT';}
	.st4{font-size:78.5881px;}
</style>
<g id="XMLID_21_">
	<path id="XMLID_16_" class="st0" d="M294.56,81.27c-0.46,25.97-44.86,60.97-133.66,61.5c-78.78,0.48-132.72-34.5-132.05-61.5
		c0.68-27.19,48.86-62.84,132.05-61.5C247.41,21.16,295.1,51.06,294.56,81.27z"/>
	<g id="XMLID_17_">
		<path class="st1" d="M225.69,21.48c-3.69-1.43-7.46-2.63-11.26-3.67c-3.82-0.98-7.66-1.84-11.53-2.53
			c-3.87-0.68-7.76-1.26-11.66-1.7c-3.89-0.48-7.81-0.81-11.72-1.09c-7.83-0.51-15.67-0.71-23.5-0.57
			c-7.83,0.13-15.65,0.47-23.42,1.14c-7.77,0.65-15.52,1.59-23.12,2.91c-3.79,0.67-7.56,1.43-11.2,2.35
			c-1.77,0.45-3.74,0.98-5.59,1.48c-1.88,0.51-3.73,1.04-5.58,1.58c-7.35,2.22-14.49,4.67-21.21,7.87
			c-3.38,1.56-6.67,3.28-9.83,5.19c-3.19,1.87-6.25,3.95-9.22,6.15c-2.94,2.19-5.93,4.59-8.68,7.02c-2.76,2.44-5.34,4.99-7.65,7.65
			c-2.34,2.64-4.41,5.4-6.12,8.29c-0.45,0.71-0.84,1.45-1.22,2.18c-0.41,0.73-0.73,1.48-1.07,2.22c-0.66,1.5-1.24,3.01-1.87,4.51
			c-1.13,2.77-1.63,5.47-1.53,8.41c0.11,2.92,0.87,5.98,2.17,9.02c2.61,6.09,7.24,11.89,12.6,17.02
			c5.39,5.14,11.56,9.72,18.09,13.77c6.54,4.05,13.47,7.59,20.64,10.61c3.59,1.5,7.24,2.88,10.95,4.1c3.7,1.21,7.51,2.3,11.3,3.3
			c7.61,1.96,15.35,3.58,23.26,4.08c-7.92,0.41-15.9-0.31-23.79-1.41c-3.95-0.57-7.87-1.22-11.81-2.03
			c-3.94-0.81-7.84-1.79-11.71-2.92c-7.74-2.26-15.34-5.09-22.71-8.57c-7.37-3.48-14.53-7.58-21.23-12.64
			c-6.65-5.09-13-11.11-17.67-19.13c-2.3-4-4.12-8.54-4.92-13.49c-0.4-2.47-0.54-5.02-0.39-7.56c0.14-2.52,0.58-5.13,1.22-7.45
			c0.56-2.27,1.39-4.46,2.4-6.54c0.5-1.04,0.99-2.09,1.56-3.08c0.54-1.01,1.11-2.01,1.73-2.96c2.4-3.87,5.18-7.4,8.14-10.62
			c2.99-3.2,6.17-6.1,9.43-8.79c3.28-2.69,6.54-5.14,10.06-7.51c3.5-2.35,7.09-4.56,10.82-6.52c3.7-2,7.52-3.78,11.4-5.36
			c3.87-1.62,7.83-2.95,11.79-4.14c3.96-1.2,7.96-2.2,11.93-3.06c1.99-0.42,3.97-0.84,5.94-1.22c2-0.38,3.88-0.76,5.98-1.1
			c4.11-0.68,8.16-1.14,12.21-1.51c8.09-0.72,16.13-1,24.16-1c16.05-0.02,32.04,1.17,47.83,3.67c7.89,1.27,15.72,2.9,23.39,5.1
			c3.84,1.09,7.62,2.35,11.35,3.73C218.51,18.09,222.16,19.68,225.69,21.48z"/>
	</g>
	<text id="XMLID_20_" transform="matrix(0.9954 0 0 1 49.6849 110.1714)" class="st2 st3 st4">Özfiliz</text>
</g>
</svg>
